# Blender 4.0.2
# www.blender.org
mtllib encaixe_painel_solar.mtl
o hock
v -0.163964 0.217500 -2.462500
v -0.163964 0.217500 2.462500
v -0.121532 0.213321 -2.462500
v -0.121532 0.213321 2.462500
v -0.080730 0.200944 -2.462500
v -0.080730 0.200944 2.462500
v -0.043127 0.180845 -2.462500
v -0.043127 0.180845 2.462500
v -0.010168 0.153796 -2.462500
v -0.010168 0.153796 2.462500
v 0.016881 0.120837 -2.462500
v 0.016881 0.120836 2.462500
v 0.036980 0.083234 -2.462500
v 0.036980 0.083234 2.462500
v 0.049357 0.042432 -2.462500
v 0.049357 0.042432 2.462500
v 0.053536 0.000000 -2.462500
v 0.053536 -0.000000 2.462500
v 0.049357 -0.042432 -2.462500
v 0.049357 -0.042432 2.462500
v 0.036980 -0.083234 -2.462500
v 0.036980 -0.083234 2.462500
v 0.016881 -0.120836 -2.462500
v 0.016881 -0.120837 2.462500
v -0.010168 -0.153796 -2.462500
v -0.010168 -0.153796 2.462500
v -0.043127 -0.180845 -2.462500
v -0.043127 -0.180845 2.462500
v -0.080730 -0.200944 -2.462500
v -0.080730 -0.200944 2.462500
v -0.121532 -0.213321 -2.462500
v -0.121532 -0.213321 2.462500
v -0.163964 -0.217500 -2.462500
v -0.163964 -0.217500 2.462500
v -0.206396 -0.213321 -2.462500
v -0.206396 -0.213321 2.462500
v -0.247197 -0.200944 -2.462500
v -0.247197 -0.200944 2.462500
v -0.284800 -0.180845 -2.462500
v -0.284800 -0.180845 2.462500
v -0.317760 -0.153796 -2.462500
v -0.317760 -0.153796 2.462500
v -0.344808 -0.120836 -2.462500
v -0.344808 -0.120837 2.462500
v -0.364908 -0.083234 -2.462500
v -0.364908 -0.083234 2.462500
v -0.377285 -0.042432 -2.462500
v -0.377285 -0.042432 2.462500
v -0.381464 0.000000 -2.462500
v -0.381464 -0.000000 2.462500
v -0.377285 0.042432 -2.462500
v -0.377285 0.042432 2.462500
v -0.364908 0.083234 -2.462500
v -0.364908 0.083234 2.462500
v -0.344808 0.120837 -2.462500
v -0.344808 0.120836 2.462500
v -0.317760 0.153796 -2.462500
v -0.317760 0.153796 2.462500
v -0.284800 0.180845 -2.462500
v -0.284800 0.180845 2.462500
v -0.247197 0.200944 -2.462500
v -0.247197 0.200944 2.462500
v -0.206396 0.213321 -2.462500
v -0.206396 0.213321 2.462500
v -1.000000 -0.131541 -0.134089
v -1.000000 0.768459 -0.134089
v 1.000000 -0.131541 -0.134089
v 1.000000 0.768459 -0.134089
v -0.181593 -0.131541 0.065911
v -1.000000 0.236742 0.065911
v -1.000000 -0.131541 -0.015930
v -0.181593 0.768459 0.065911
v -1.000000 0.768459 -0.015930
v -1.000000 0.400175 0.065911
v 0.181593 -0.131541 0.065911
v 1.000000 -0.131541 -0.015930
v 1.000000 0.236742 0.065911
v 1.000000 0.400175 0.065911
v 1.000000 0.768459 -0.015930
v 0.181593 0.768459 0.065911
v -1.000000 -0.131541 0.207359
v -0.181593 -0.131541 0.289200
v -1.000000 0.236742 0.289200
v -1.000000 0.400175 0.289200
v -0.181593 0.768459 0.289200
v -1.000000 0.768459 0.207359
v 1.000000 0.236742 0.289200
v 0.181593 -0.131541 0.289200
v 1.000000 -0.131541 0.207359
v 0.181593 0.768459 0.289200
v 1.000000 0.400175 0.289200
v 1.000000 0.768459 0.207359
v 0.181850 0.761254 0.065911
v 0.181850 0.761254 0.289200
v -0.207811 0.770950 0.062287
v -0.207811 0.770950 0.285576
v -0.319015 0.746543 0.018734
v -0.319015 0.746543 0.242023
v 0.207115 0.217500 -2.462500
v 0.207115 0.217500 2.462500
v 0.249548 0.213321 -2.462500
v 0.249548 0.213321 2.462500
v 0.290349 0.200944 -2.462500
v 0.290349 0.200944 2.462500
v 0.327952 0.180845 -2.462500
v 0.327952 0.180845 2.462500
v 0.360911 0.153796 -2.462500
v 0.360911 0.153796 2.462500
v 0.387960 0.120837 -2.462500
v 0.387960 0.120836 2.462500
v 0.408059 0.083234 -2.462500
v 0.408059 0.083234 2.462500
v 0.420436 0.042432 -2.462500
v 0.420436 0.042432 2.462500
v 0.424615 0.000000 -2.462500
v 0.424615 -0.000000 2.462500
v 0.420436 -0.042432 -2.462500
v 0.420436 -0.042432 2.462500
v 0.408059 -0.083234 -2.462500
v 0.408059 -0.083234 2.462500
v 0.387960 -0.120836 -2.462500
v 0.387960 -0.120837 2.462500
v 0.360911 -0.153796 -2.462500
v 0.360911 -0.153796 2.462500
v 0.327952 -0.180845 -2.462500
v 0.327952 -0.180845 2.462500
v 0.290349 -0.200944 -2.462500
v 0.290349 -0.200944 2.462500
v 0.249548 -0.213321 -2.462500
v 0.249548 -0.213321 2.462500
v 0.207115 -0.217500 -2.462500
v 0.207115 -0.217500 2.462500
v 0.164683 -0.213321 -2.462500
v 0.164683 -0.213321 2.462500
v 0.123882 -0.200944 -2.462500
v 0.123882 -0.200944 2.462500
v 0.086279 -0.180845 -2.462500
v 0.086279 -0.180845 2.462500
v 0.053320 -0.153796 -2.462500
v 0.053320 -0.153796 2.462500
v 0.026271 -0.120836 -2.462500
v 0.026271 -0.120837 2.462500
v 0.006172 -0.083234 -2.462500
v 0.006172 -0.083234 2.462500
v -0.006205 -0.042432 -2.462500
v -0.006205 -0.042432 2.462500
v -0.010385 0.000000 -2.462500
v -0.010385 -0.000000 2.462500
v -0.006205 0.042432 -2.462500
v -0.006205 0.042432 2.462500
v 0.006172 0.083234 -2.462500
v 0.006172 0.083234 2.462500
v 0.026271 0.120837 -2.462500
v 0.026271 0.120836 2.462500
v 0.053320 0.153796 -2.462500
v 0.053320 0.153796 2.462500
v 0.086279 0.180845 -2.462500
v 0.086279 0.180845 2.462500
v 0.123882 0.200944 -2.462500
v 0.123882 0.200944 2.462500
v 0.164683 0.213321 -2.462500
v 0.164683 0.213321 2.462500
vn 0.0980 0.9952 -0.0000
vn 0.2903 0.9569 -0.0000
vn 0.4714 0.8819 -0.0000
vn 0.6344 0.7730 -0.0000
vn 0.7730 0.6344 -0.0000
vn 0.8819 0.4714 -0.0000
vn 0.9569 0.2903 -0.0000
vn 0.9952 0.0980 -0.0000
vn 0.9952 -0.0980 -0.0000
vn 0.9569 -0.2903 -0.0000
vn 0.8819 -0.4714 -0.0000
vn 0.7730 -0.6344 -0.0000
vn 0.6344 -0.7730 -0.0000
vn 0.4714 -0.8819 -0.0000
vn 0.2903 -0.9569 -0.0000
vn 0.0980 -0.9952 -0.0000
vn -0.0980 -0.9952 -0.0000
vn -0.2903 -0.9569 -0.0000
vn -0.4714 -0.8819 -0.0000
vn -0.6344 -0.7730 -0.0000
vn -0.7730 -0.6344 -0.0000
vn -0.8819 -0.4714 -0.0000
vn -0.9569 -0.2903 -0.0000
vn -0.9952 -0.0980 -0.0000
vn -0.9952 0.0980 -0.0000
vn -0.9569 0.2903 -0.0000
vn -0.8819 0.4714 -0.0000
vn -0.7730 0.6344 -0.0000
vn -0.6344 0.7730 -0.0000
vn -0.4714 0.8819 -0.0000
vn -0.0000 -0.0000 1.0000
vn -0.2903 0.9569 -0.0000
vn -0.0980 0.9952 -0.0000
vn -0.0000 -0.0000 -1.0000
vn 1.0000 -0.0000 -0.0000
vn -1.0000 -0.0000 -0.0000
vn -0.0000 1.0000 -0.0000
vn -0.4104 0.9119 -0.0000
vn -0.4104 -0.9119 -0.0000
vn -0.0000 -1.0000 -0.0000
vn -0.0972 -0.2159 0.9716
vn -0.0972 0.2159 0.9716
vn 0.0972 -0.2159 0.9716
vn 0.0972 0.2159 0.9716
vn 0.4104 -0.9119 -0.0000
vn 0.4104 0.9119 -0.0000
vn -0.9994 -0.0357 -0.0000
vn 0.0249 0.9997 -0.0000
vn -0.2144 0.9768 -0.0000
vt 1.000000 0.500000
vt 1.000000 1.000000
vt 0.968750 1.000000
vt 0.968750 0.500000
vt 0.937500 1.000000
vt 0.937500 0.500000
vt 0.906250 1.000000
vt 0.906250 0.500000
vt 0.875000 1.000000
vt 0.875000 0.500000
vt 0.843750 1.000000
vt 0.843750 0.500000
vt 0.812500 1.000000
vt 0.812500 0.500000
vt 0.781250 1.000000
vt 0.781250 0.500000
vt 0.750000 1.000000
vt 0.750000 0.500000
vt 0.718750 1.000000
vt 0.718750 0.500000
vt 0.687500 1.000000
vt 0.687500 0.500000
vt 0.656250 1.000000
vt 0.656250 0.500000
vt 0.625000 1.000000
vt 0.625000 0.500000
vt 0.593750 1.000000
vt 0.593750 0.500000
vt 0.562500 1.000000
vt 0.562500 0.500000
vt 0.531250 1.000000
vt 0.531250 0.500000
vt 0.500000 1.000000
vt 0.500000 0.500000
vt 0.468750 1.000000
vt 0.468750 0.500000
vt 0.437500 1.000000
vt 0.437500 0.500000
vt 0.406250 1.000000
vt 0.406250 0.500000
vt 0.375000 1.000000
vt 0.375000 0.500000
vt 0.343750 1.000000
vt 0.343750 0.500000
vt 0.312500 1.000000
vt 0.312500 0.500000
vt 0.281250 1.000000
vt 0.281250 0.500000
vt 0.250000 1.000000
vt 0.250000 0.500000
vt 0.218750 1.000000
vt 0.218750 0.500000
vt 0.187500 1.000000
vt 0.187500 0.500000
vt 0.156250 1.000000
vt 0.156250 0.500000
vt 0.125000 1.000000
vt 0.125000 0.500000
vt 0.093750 1.000000
vt 0.093750 0.500000
vt 0.062500 1.000000
vt 0.062500 0.500000
vt 0.296822 0.485388
vt 0.250000 0.490000
vt 0.203178 0.485388
vt 0.158156 0.471731
vt 0.116663 0.449553
vt 0.080294 0.419706
vt 0.050447 0.383337
vt 0.028269 0.341844
vt 0.014612 0.296822
vt 0.010000 0.250000
vt 0.014612 0.203178
vt 0.028269 0.158156
vt 0.050447 0.116663
vt 0.080294 0.080294
vt 0.116663 0.050447
vt 0.158156 0.028269
vt 0.203178 0.014612
vt 0.250000 0.010000
vt 0.296822 0.014612
vt 0.341844 0.028269
vt 0.383337 0.050447
vt 0.419706 0.080294
vt 0.449553 0.116663
vt 0.471731 0.158156
vt 0.485388 0.203178
vt 0.490000 0.250000
vt 0.485388 0.296822
vt 0.471731 0.341844
vt 0.449553 0.383337
vt 0.419706 0.419706
vt 0.383337 0.449553
vt 0.341844 0.471731
vt 0.031250 1.000000
vt 0.031250 0.500000
vt 0.000000 1.000000
vt 0.000000 0.500000
vt 0.750000 0.490000
vt 0.796822 0.485388
vt 0.841844 0.471731
vt 0.883337 0.449553
vt 0.919706 0.419706
vt 0.949553 0.383337
vt 0.971731 0.341844
vt 0.985388 0.296822
vt 0.990000 0.250000
vt 0.985388 0.203178
vt 0.971731 0.158156
vt 0.949553 0.116663
vt 0.919706 0.080294
vt 0.883337 0.050447
vt 0.841844 0.028269
vt 0.796822 0.014612
vt 0.750000 0.010000
vt 0.703178 0.014612
vt 0.658156 0.028269
vt 0.616663 0.050447
vt 0.580294 0.080294
vt 0.550447 0.116663
vt 0.528269 0.158156
vt 0.514612 0.203178
vt 0.510000 0.250000
vt 0.514612 0.296822
vt 0.528269 0.341844
vt 0.550447 0.383337
vt 0.580294 0.419706
vt 0.616663 0.449553
vt 0.658156 0.471731
vt 0.703178 0.485388
vt 0.625000 0.602301
vt 0.727301 0.500000
vt 0.772699 0.500000
vt 0.875000 0.602301
vt 0.875000 0.647699
vt 0.772699 0.750000
vt 0.727301 0.750000
vt 0.625000 0.647699
vt 0.522699 0.500000
vt 0.522699 0.750000
vt 0.375000 0.750000
vt 0.375000 0.000000
vt 0.522699 0.000000
vt 0.625000 0.102301
vt 0.625000 0.147699
vt 0.522699 0.250000
vt 0.375000 0.250000
vt 0.125000 0.750000
vt 0.625000 0.352301
vt 0.625000 0.397699
vt 0.625000 0.852301
vt 0.625000 0.897699
vt 0.522699 1.000000
s 0
usemtl Material.001
f 1/1/1 2/2/1 4/3/1 3/4/1
f 3/4/2 4/3/2 6/5/2 5/6/2
f 5/6/3 6/5/3 8/7/3 7/8/3
f 7/8/4 8/7/4 10/9/4 9/10/4
f 9/10/5 10/9/5 12/11/5 11/12/5
f 11/12/6 12/11/6 14/13/6 13/14/6
f 13/14/7 14/13/7 16/15/7 15/16/7
f 15/16/8 16/15/8 18/17/8 17/18/8
f 17/18/9 18/17/9 20/19/9 19/20/9
f 19/20/10 20/19/10 22/21/10 21/22/10
f 21/22/11 22/21/11 24/23/11 23/24/11
f 23/24/12 24/23/12 26/25/12 25/26/12
f 25/26/13 26/25/13 28/27/13 27/28/13
f 27/28/14 28/27/14 30/29/14 29/30/14
f 29/30/15 30/29/15 32/31/15 31/32/15
f 31/32/16 32/31/16 34/33/16 33/34/16
f 33/34/17 34/33/17 36/35/17 35/36/17
f 35/36/18 36/35/18 38/37/18 37/38/18
f 37/38/19 38/37/19 40/39/19 39/40/19
f 39/40/20 40/39/20 42/41/20 41/42/20
f 41/42/21 42/41/21 44/43/21 43/44/21
f 43/44/22 44/43/22 46/45/22 45/46/22
f 45/46/23 46/45/23 48/47/23 47/48/23
f 47/48/24 48/47/24 50/49/24 49/50/24
f 49/50/25 50/49/25 52/51/25 51/52/25
f 51/52/26 52/51/26 54/53/26 53/54/26
f 53/54/27 54/53/27 56/55/27 55/56/27
f 55/56/28 56/55/28 58/57/28 57/58/28
f 57/58/29 58/57/29 60/59/29 59/60/29
f 59/60/30 60/59/30 62/61/30 61/62/30
f 4/63/31 2/64/31 64/65/31 62/66/31 60/67/31 58/68/31 56/69/31 54/70/31 52/71/31 50/72/31 48/73/31 46/74/31 44/75/31 42/76/31 40/77/31 38/78/31 36/79/31 34/80/31 32/81/31 30/82/31 28/83/31 26/84/31 24/85/31 22/86/31 20/87/31 18/88/31 16/89/31 14/90/31 12/91/31 10/92/31 8/93/31 6/94/31
f 61/62/32 62/61/32 64/95/32 63/96/32
f 63/96/33 64/95/33 2/97/33 1/98/33
f 1/99/34 3/100/34 5/101/34 7/102/34 9/103/34 11/104/34 13/105/34 15/106/34 17/107/34 19/108/34 21/109/34 23/110/34 25/111/34 27/112/34 29/113/34 31/114/34 33/115/34 35/116/34 37/117/34 39/118/34 41/119/34 43/120/34 45/121/34 47/122/34 49/123/34 51/124/34 53/125/34 55/126/34 57/127/34 59/128/34 61/129/34 63/130/34
f 78/131/31 80/132/31 72/133/31 74/134/31 70/135/31 69/136/31 75/137/31 77/138/31
f 68/42/35 79/139/35 78/131/35 77/138/35 76/140/35 67/141/35
f 65/142/36 71/143/36 70/144/36 74/145/36 73/146/36 66/147/36
f 66/58/34 68/42/34 67/141/34 65/148/34
f 66/147/37 73/146/37 72/149/37 80/150/37 79/139/37 68/42/37
f 77/138/38 75/137/38 88/137/38 87/138/38
f 80/132/39 78/131/39 91/131/39 90/132/39
f 70/144/36 71/143/36 81/143/36 83/144/36
f 73/146/36 74/145/36 84/145/36 86/146/36
f 67/141/40 76/140/40 75/151/40 69/152/40 71/153/40 65/41/40
f 82/152/41 83/135/41 81/143/41
f 85/133/42 86/146/42 84/145/42
f 88/137/43 89/140/43 87/138/43
f 91/131/44 92/139/44 90/150/44
f 74/134/45 72/133/45 85/133/45 84/134/45
f 78/131/35 79/139/35 92/139/35 91/131/35
f 71/153/40 69/152/40 82/152/40 81/153/40
f 75/151/40 76/140/40 89/140/40 88/151/40
f 72/149/37 73/146/37 86/146/37 85/149/37
f 79/139/37 80/150/37 90/150/37 92/139/37
f 69/136/46 70/135/46 83/135/46 82/136/46
f 76/140/35 77/138/35 87/138/35 89/140/35
f 90/132/47 80/132/47 93/132/47 94/132/47
f 94/132/48 93/132/48 95/132/48 96/132/48
f 96/132/49 95/132/49 97/132/49 98/132/49
f 99/1/1 100/2/1 102/3/1 101/4/1
f 101/4/2 102/3/2 104/5/2 103/6/2
f 103/6/3 104/5/3 106/7/3 105/8/3
f 105/8/4 106/7/4 108/9/4 107/10/4
f 107/10/5 108/9/5 110/11/5 109/12/5
f 109/12/6 110/11/6 112/13/6 111/14/6
f 111/14/7 112/13/7 114/15/7 113/16/7
f 113/16/8 114/15/8 116/17/8 115/18/8
f 115/18/9 116/17/9 118/19/9 117/20/9
f 117/20/10 118/19/10 120/21/10 119/22/10
f 119/22/11 120/21/11 122/23/11 121/24/11
f 121/24/12 122/23/12 124/25/12 123/26/12
f 123/26/13 124/25/13 126/27/13 125/28/13
f 125/28/14 126/27/14 128/29/14 127/30/14
f 127/30/15 128/29/15 130/31/15 129/32/15
f 129/32/16 130/31/16 132/33/16 131/34/16
f 131/34/17 132/33/17 134/35/17 133/36/17
f 133/36/18 134/35/18 136/37/18 135/38/18
f 135/38/19 136/37/19 138/39/19 137/40/19
f 137/40/20 138/39/20 140/41/20 139/42/20
f 139/42/21 140/41/21 142/43/21 141/44/21
f 141/44/22 142/43/22 144/45/22 143/46/22
f 143/46/23 144/45/23 146/47/23 145/48/23
f 145/48/24 146/47/24 148/49/24 147/50/24
f 147/50/25 148/49/25 150/51/25 149/52/25
f 149/52/26 150/51/26 152/53/26 151/54/26
f 151/54/27 152/53/27 154/55/27 153/56/27
f 153/56/28 154/55/28 156/57/28 155/58/28
f 155/58/29 156/57/29 158/59/29 157/60/29
f 157/60/30 158/59/30 160/61/30 159/62/30
f 102/63/31 100/64/31 162/65/31 160/66/31 158/67/31 156/68/31 154/69/31 152/70/31 150/71/31 148/72/31 146/73/31 144/74/31 142/75/31 140/76/31 138/77/31 136/78/31 134/79/31 132/80/31 130/81/31 128/82/31 126/83/31 124/84/31 122/85/31 120/86/31 118/87/31 116/88/31 114/89/31 112/90/31 110/91/31 108/92/31 106/93/31 104/94/31
f 159/62/32 160/61/32 162/95/32 161/96/32
f 161/96/33 162/95/33 100/97/33 99/98/33
f 99/99/34 101/100/34 103/101/34 105/102/34 107/103/34 109/104/34 111/105/34 113/106/34 115/107/34 117/108/34 119/109/34 121/110/34 123/111/34 125/112/34 127/113/34 129/114/34 131/115/34 133/116/34 135/117/34 137/118/34 139/119/34 141/120/34 143/121/34 145/122/34 147/123/34 149/124/34 151/125/34 153/126/34 155/127/34 157/128/34 159/129/34 161/130/34
